<?xml version="1.0" encoding="UTF-8" standalone="no"?>
<svg
   viewBox="0 0 302.85 69.25"
   version="1.1"
   id="svg11"
   sodipodi:docname="apero-escape.svg"
   inkscape:version="1.4.4 (dcaf3e7, 2026-05-05)"
   xmlns:inkscape="http://www.inkscape.org/namespaces/inkscape"
   xmlns:sodipodi="http://sodipodi.sourceforge.net/DTD/sodipodi-0.dtd"
   xmlns="http://www.w3.org/2000/svg"
   xmlns:svg="http://www.w3.org/2000/svg">
  <sodipodi:namedview
     id="namedview11"
     pagecolor="#ffffff"
     bordercolor="#666666"
     borderopacity="1.0"
     inkscape:showpageshadow="2"
     inkscape:pageopacity="0.0"
     inkscape:pagecheckerboard="0"
     inkscape:deskcolor="#d1d1d1"
     inkscape:zoom="2.8330856"
     inkscape:cx="151.425"
     inkscape:cy="34.767745"
     inkscape:window-width="2560"
     inkscape:window-height="1278"
     inkscape:window-x="0"
     inkscape:window-y="30"
     inkscape:window-maximized="1"
     inkscape:current-layer="svg11" />
  <defs
     id="defs1">
    <style
       id="style1">
      .cls-1 {
        fill: #cd2026;
      }

      .cls-2 {
        fill: #fff;
      }
    </style>
  </defs>
  <g
     id="LOGOS">
    <g
       id="g11">
      <path
         class="cls-2"
         d="M26.71,49.41h-6.92v-17.3c0-.26.03-.51.06-.77.45-2.79,1.44-3.97,3.68-4.74.61-.19.99-.26,2.53-.26h10.02c1.7,0,2.75.48,3.91,1.79.99,1.09,1.38,2.11,1.38,3.84v17.42h-6.92v-8.9h-7.75v8.9ZM26.71,35.57h7.75v-3.23h-7.75v3.23Z"
         id="path1" />
      <path
         class="cls-2"
         d="M51.09,49.41h-6.92v-23.06h16.78c1.95,0,2.88.29,4.1,1.38,1.15,1.06,1.67,2.27,1.67,4.48v4.32c0,1.35-.32,2.24-1.22,3.36-1.15,1.47-2.5,2.08-4.96,2.08h-9.45v7.43ZM51.09,37.14h8.71v-4.8h-8.71v4.8Z"
         id="path2" />
      <path
         class="cls-2"
         d="M88.73,49.41h-19.92v-23.06h19.92v5.99h-13v3.11h13v4.39h-13v3.59h13v5.99ZM80.75,25.13h-3.94l3.14-5.32h5.38l-4.58,5.32Z"
         id="path3" />
      <path
         class="cls-2"
         d="M98.4,49.41h-6.92v-23.06h17.87c1.22,0,1.79.16,2.69.8,1.28.9,1.83,1.99,1.83,3.59v3.56c0,.32-.13.9-.54,1.67-.26.48-.7.93-1.57,1.54-.16.1-.29.19-.45.26l-.19.13-.22.1.29.19s.19.13.38.22c.61.42,1.09.83,1.41,1.25.7.9.9,1.57.9,2.56v7.21h-6.92v-9.1h-8.55v9.1ZM98.4,35.51h8.55v-3.17h-8.55v3.17Z"
         id="path4" />
      <path
         class="cls-2"
         d="M116.63,42.9v-10.12c0-.7.06-1.25.22-1.83.42-1.57,1.19-2.69,2.34-3.52,1.06-.77,2.15-1.09,3.72-1.09h10.28c4.68.29,6.66,2.18,6.66,5.92v11.47c0,.38-.06.83-.19,1.28-.16.64-.38,1.15-.7,1.63-1.35,1.99-2.79,2.75-4.84,2.75h-12.65c-.51,0-1.06-.13-1.67-.38-1.89-.83-2.95-2.43-3.14-5.54-.03-.19-.03-.38-.03-.58ZM123.55,43.42h9.38v-11.08h-9.38v11.08Z"
         id="path5" />
      <path
         class="cls-1"
         d="M162.53,49.41h-19.92v-23.06h19.92v5.99h-13v3.11h13v4.39h-13v3.59h13v5.99Z"
         id="path6" />
      <path
         class="cls-1"
         d="M165.29,49.41v-5.99h15.79v-2.75h-10.92c-1.06,0-1.89-.26-2.75-.9-1.51-1.09-2.11-2.27-2.11-3.84v-5.73c0-.42.13-.93.45-1.54.16-.26.32-.51.54-.77,1.02-1.15,2.05-1.54,4.42-1.54h16.11v5.99h-14.54v3.23h10.73s.29.03.61.03c2.21.1,3.4.83,4.07,2.21.26.51.38,1.12.38,1.86v5.35c0,1.99-.54,3.11-1.99,3.94-.51.29-.99.42-2.08.48-.83-.03-1.63-.03-1.63-.03h-17.07Z"
         id="path7" />
      <path
         class="cls-1"
         d="M190.83,42.9v-10.12c0-.7.06-1.25.22-1.83.42-1.57,1.19-2.69,2.34-3.52,1.06-.77,2.15-1.09,3.72-1.09h14.12v5.99h-13.48v11.08h13.48v5.99h-15.44c-.58,0-1.19-.13-1.73-.35-1.89-.8-3.01-2.47-3.2-5.6-.03-.16-.03-.35-.03-.54Z"
         id="path8" />
      <path
         class="cls-1"
         d="M220.91,49.41h-6.92v-17.3c0-.26.03-.51.06-.77.45-2.79,1.44-3.97,3.68-4.74.61-.19.99-.26,2.53-.26h10.02c1.7,0,2.75.48,3.91,1.79.99,1.09,1.38,2.11,1.38,3.84v17.42h-6.92v-8.9h-7.75v8.9ZM220.91,35.57h7.75v-3.23h-7.75v3.23Z"
         id="path9" />
      <path
         class="cls-1"
         d="M245.28,49.41h-6.92v-23.06h16.78c1.95,0,2.88.29,4.1,1.38,1.15,1.06,1.67,2.27,1.67,4.48v4.32c0,1.35-.32,2.24-1.22,3.36-1.15,1.47-2.5,2.08-4.96,2.08h-9.45v7.43ZM245.28,37.14h8.71v-4.8h-8.71v4.8Z"
         id="path10" />
      <path
         class="cls-1"
         d="M282.92,49.41h-19.92v-23.06h19.92v5.99h-13v3.11h13v4.39h-13v3.59h13v5.99Z"
         id="path11" />
    </g>
  </g>
</svg>
